# xmcd
#
# Track frame offsets: 
#        150
#        16670
#        30794
#        43749
#        57914
#        69915
#        86359
#        100429
#        115441
#        130719
#        143537
#        156650
#        170105
#        186142
#        197628
#        209380
#        224766
#        240282
#        257818
#        267393
#        280727
#        299485
#        314149
#
# Disc length: 4404 seconds
#
# Revision: 0
# Processed by: cddbd v1.5.2PL0 Copyright (c) Steve Scherf et al.
# Submitted via: ExactAudioCopyFreeDBPlugin 1.0
#
DISCID=5c113217
DTITLE=João Mineiro e Marciano - Clássicos Sertanejos
DYEAR=1900
DGENRE=
TTITLE0=Amor Clandestino
TTITLE1=Benza Deus
TTITLE2=Como as Ondas do Mar
TTITLE3=A Bailarina
TTITLE4=O Beijo dop Adeus
TTITLE5=Seu Amor Ainda é Tudo
TTITLE6=Ainda Ontem Chorei de Saudade
TTITLE7=Viciado em Você
TTITLE8=Viola esta Chorando
TTITLE9=Telefone Mais
TTITLE10=Esta Noite Como Lembrança
TTITLE11=Aline
TTITLE12=Não Se Bate Em Quem Se Ama
TTITLE13=Whisky com Gelo
TTITLE14=A Mulher Que Eu amo
TTITLE15=Paredes Azuis
TTITLE16=Se Eu Pudesse Conversar Com Deus
TTITLE17=Romaria
TTITLE18=A Mulher do Palhaço
TTITLE19=Crises de Amor
TTITLE20=Distante dos Olhos
TTITLE21=Chuvas de Maio
TTITLE22=Seu Eu Não Puder Te Esqueçer
EXTD=
EXTT0=
EXTT1=
EXTT2=
EXTT3=
EXTT4=
EXTT5=
EXTT6=
EXTT7=
EXTT8=
EXTT9=
EXTT10=
EXTT11=
EXTT12=
EXTT13=
EXTT14=
EXTT15=
EXTT16=
EXTT17=
EXTT18=
EXTT19=
EXTT20=
EXTT21=
EXTT22=
PLAYORDER=
